<svg xmlns="http://www.w3.org/2000/svg" viewBox="-90 -65 700 275" fill="none">

  <!-- Ракетка: по центру рамки (x=260), над рамкой с зазором -->
  <g transform="translate(260, 12) scale(-1, 1) rotate(-38)">
    <clipPath id="rc">
      <ellipse cx="0" cy="0" rx="26" ry="30"/>
    </clipPath>
    <!-- Голова: белая заливка + контур -->
    <ellipse cx="0" cy="0" rx="26" ry="30" fill="white" stroke="white" stroke-width="3"/>
    <!-- Струны (тёмные по белому) -->
    <g clip-path="url(#rc)" stroke="black" stroke-width="1.5">
      <line x1="-26" y1="-30" x2="-26" y2="30"/>
      <line x1="-20" y1="-30" x2="-20" y2="30"/>
      <line x1="-14" y1="-30" x2="-14" y2="30"/>
      <line x1="-8"  y1="-30" x2="-8"  y2="30"/>
      <line x1="-2"  y1="-30" x2="-2"  y2="30"/>
      <line x1="4"   y1="-30" x2="4"   y2="30"/>
      <line x1="10"  y1="-30" x2="10"  y2="30"/>
      <line x1="16"  y1="-30" x2="16"  y2="30"/>
      <line x1="22"  y1="-30" x2="22"  y2="30"/>
      <line x1="-26" y1="-24" x2="26"  y2="-24"/>
      <line x1="-26" y1="-18" x2="26"  y2="-18"/>
      <line x1="-26" y1="-12" x2="26"  y2="-12"/>
      <line x1="-26" y1="-6"  x2="26"  y2="-6"/>
      <line x1="-26" y1="0"   x2="26"  y2="0"/>
      <line x1="-26" y1="6"   x2="26"  y2="6"/>
      <line x1="-26" y1="12"  x2="26"  y2="12"/>
      <line x1="-26" y1="18"  x2="26"  y2="18"/>
      <line x1="-26" y1="24"  x2="26"  y2="24"/>
    </g>
    <!-- Шея: два прутка расходятся от ручки к краям головы -->
    <path d="M -4 46 Q -6 40 -10 30" fill="none" stroke="white" stroke-width="3.5" stroke-linecap="round"/>
    <path d="M  4 46 Q  6 40  10 30" fill="none" stroke="white" stroke-width="3.5" stroke-linecap="round"/>
    <!-- Ручка -->
    <rect x="-4" y="46" width="8" height="28" rx="2" fill="white"/>
  </g>

  <!-- Рамка: разрыв над ракеткой (x=260), зазор ±55 от центра ракетки -->
  <!-- Верх слева (до буквы N) -->
  <line x1="-70" y1="28" x2="110" y2="28" stroke="white" stroke-width="5" stroke-linecap="square"/>
  <!-- Верх справа (после буквы E) -->
  <line x1="410" y1="28" x2="590" y2="28" stroke="white" stroke-width="5" stroke-linecap="square"/>
  <!-- Низ -->
  <line x1="-70" y1="193" x2="590" y2="193" stroke="white" stroke-width="5" stroke-linecap="square"/>
  <!-- Левая вертикаль -->
  <line x1="-70" y1="28"  x2="-70" y2="193" stroke="white" stroke-width="5" stroke-linecap="square"/>
  <!-- Правая вертикаль -->
  <line x1="590" y1="28"  x2="590" y2="193" stroke="white" stroke-width="5" stroke-linecap="square"/>

  <!-- Текст NAKORTE внутри рамки -->
  <text
    x="257"
    y="145"
    text-anchor="middle"
    font-family="'Arial', 'Helvetica Neue', sans-serif"
    font-weight="700"
    font-size="90"
    letter-spacing="6"
    fill="white"
  >NAKORTE</text>

</svg>
